<svg xmlns="http://www.w3.org/2000/svg" viewBox="0 0 520 456" width="520" height="456">
  <style>
    .tri { fill: #4a90d9; opacity: 0.85; }
    .label { fill: #1a3a5c; }
    @media (prefers-color-scheme: dark) {
      .tri { fill: #5ba0e6; opacity: 0.9; }
      .label { fill: #a8d0f5; }
    }
  </style>
  <g class="tri">
    <polygon points="260.0,20.0 245.0,46.0 275.0,46.0"/>
    <polygon points="245.0,46.0 230.0,72.0 260.0,72.0"/>
    <polygon points="275.0,46.0 260.0,72.0 290.0,72.0"/>
    <polygon points="230.0,72.0 215.0,97.9 245.0,97.9"/>
    <polygon points="215.0,97.9 200.0,123.9 230.0,123.9"/>
    <polygon points="245.0,97.9 230.0,123.9 260.0,123.9"/>
    <polygon points="290.0,72.0 275.0,97.9 305.0,97.9"/>
    <polygon points="275.0,97.9 260.0,123.9 290.0,123.9"/>
    <polygon points="305.0,97.9 290.0,123.9 320.0,123.9"/>
    <polygon points="200.0,123.9 185.0,149.9 215.0,149.9"/>
    <polygon points="185.0,149.9 170.0,175.9 200.0,175.9"/>
    <polygon points="215.0,149.9 200.0,175.9 230.0,175.9"/>
    <polygon points="170.0,175.9 155.0,201.9 185.0,201.9"/>
    <polygon points="155.0,201.9 140.0,227.8 170.0,227.8"/>
    <polygon points="185.0,201.9 170.0,227.8 200.0,227.8"/>
    <polygon points="230.0,175.9 215.0,201.9 245.0,201.9"/>
    <polygon points="215.0,201.9 200.0,227.8 230.0,227.8"/>
    <polygon points="245.0,201.9 230.0,227.8 260.0,227.8"/>
    <polygon points="320.0,123.9 305.0,149.9 335.0,149.9"/>
    <polygon points="305.0,149.9 290.0,175.9 320.0,175.9"/>
    <polygon points="335.0,149.9 320.0,175.9 350.0,175.9"/>
    <polygon points="290.0,175.9 275.0,201.9 305.0,201.9"/>
    <polygon points="275.0,201.9 260.0,227.8 290.0,227.8"/>
    <polygon points="305.0,201.9 290.0,227.8 320.0,227.8"/>
    <polygon points="350.0,175.9 335.0,201.9 365.0,201.9"/>
    <polygon points="335.0,201.9 320.0,227.8 350.0,227.8"/>
    <polygon points="365.0,201.9 350.0,227.8 380.0,227.8"/>
    <polygon points="140.0,227.8 125.0,253.8 155.0,253.8"/>
    <polygon points="125.0,253.8 110.0,279.8 140.0,279.8"/>
    <polygon points="155.0,253.8 140.0,279.8 170.0,279.8"/>
    <polygon points="110.0,279.8 95.0,305.8 125.0,305.8"/>
    <polygon points="95.0,305.8 80.0,331.8 110.0,331.8"/>
    <polygon points="125.0,305.8 110.0,331.8 140.0,331.8"/>
    <polygon points="170.0,279.8 155.0,305.8 185.0,305.8"/>
    <polygon points="155.0,305.8 140.0,331.8 170.0,331.8"/>
    <polygon points="185.0,305.8 170.0,331.8 200.0,331.8"/>
    <polygon points="80.0,331.8 65.0,357.7 95.0,357.7"/>
    <polygon points="65.0,357.7 50.0,383.7 80.0,383.7"/>
    <polygon points="95.0,357.7 80.0,383.7 110.0,383.7"/>
    <polygon points="50.0,383.7 35.0,409.7 65.0,409.7"/>
    <polygon points="35.0,409.7 20.0,435.7 50.0,435.7"/>
    <polygon points="65.0,409.7 50.0,435.7 80.0,435.7"/>
    <polygon points="110.0,383.7 95.0,409.7 125.0,409.7"/>
    <polygon points="95.0,409.7 80.0,435.7 110.0,435.7"/>
    <polygon points="125.0,409.7 110.0,435.7 140.0,435.7"/>
    <polygon points="200.0,331.8 185.0,357.7 215.0,357.7"/>
    <polygon points="185.0,357.7 170.0,383.7 200.0,383.7"/>
    <polygon points="215.0,357.7 200.0,383.7 230.0,383.7"/>
    <polygon points="170.0,383.7 155.0,409.7 185.0,409.7"/>
    <polygon points="155.0,409.7 140.0,435.7 170.0,435.7"/>
    <polygon points="185.0,409.7 170.0,435.7 200.0,435.7"/>
    <polygon points="230.0,383.7 215.0,409.7 245.0,409.7"/>
    <polygon points="215.0,409.7 200.0,435.7 230.0,435.7"/>
    <polygon points="245.0,409.7 230.0,435.7 260.0,435.7"/>
    <polygon points="380.0,227.8 365.0,253.8 395.0,253.8"/>
    <polygon points="365.0,253.8 350.0,279.8 380.0,279.8"/>
    <polygon points="395.0,253.8 380.0,279.8 410.0,279.8"/>
    <polygon points="350.0,279.8 335.0,305.8 365.0,305.8"/>
    <polygon points="335.0,305.8 320.0,331.8 350.0,331.8"/>
    <polygon points="365.0,305.8 350.0,331.8 380.0,331.8"/>
    <polygon points="410.0,279.8 395.0,305.8 425.0,305.8"/>
    <polygon points="395.0,305.8 380.0,331.8 410.0,331.8"/>
    <polygon points="425.0,305.8 410.0,331.8 440.0,331.8"/>
    <polygon points="320.0,331.8 305.0,357.7 335.0,357.7"/>
    <polygon points="305.0,357.7 290.0,383.7 320.0,383.7"/>
    <polygon points="335.0,357.7 320.0,383.7 350.0,383.7"/>
    <polygon points="290.0,383.7 275.0,409.7 305.0,409.7"/>
    <polygon points="275.0,409.7 260.0,435.7 290.0,435.7"/>
    <polygon points="305.0,409.7 290.0,435.7 320.0,435.7"/>
    <polygon points="350.0,383.7 335.0,409.7 365.0,409.7"/>
    <polygon points="335.0,409.7 320.0,435.7 350.0,435.7"/>
    <polygon points="365.0,409.7 350.0,435.7 380.0,435.7"/>
    <polygon points="440.0,331.8 425.0,357.7 455.0,357.7"/>
    <polygon points="425.0,357.7 410.0,383.7 440.0,383.7"/>
    <polygon points="455.0,357.7 440.0,383.7 470.0,383.7"/>
    <polygon points="410.0,383.7 395.0,409.7 425.0,409.7"/>
    <polygon points="395.0,409.7 380.0,435.7 410.0,435.7"/>
    <polygon points="425.0,409.7 410.0,435.7 440.0,435.7"/>
    <polygon points="470.0,383.7 455.0,409.7 485.0,409.7"/>
    <polygon points="455.0,409.7 440.0,435.7 470.0,435.7"/>
    <polygon points="485.0,409.7 470.0,435.7 500.0,435.7"/>
  </g>
  <text x="260" y="297" class="label" font-family="'Courier New', Courier, monospace" font-weight="bold" font-size="30" text-anchor="middle" dominant-baseline="middle">P.Y.R.S</text>
</svg>